<svg width="30" height="30" viewBox="0 0 30 30" fill="none" xmlns="http://www.w3.org/2000/svg">
<path d="M24.9375 10C24.7194 9.62215 24.4061 9.30798 24.029 9.08869C23.6518 8.8694 23.2238 8.75263 22.7875 8.75H19.75V6.25C19.75 5.91848 19.6183 5.60054 19.3839 5.36612C19.1495 5.1317 18.8315 5 18.5 5H6C5.33696 5 4.70107 5.26339 4.23223 5.73223C3.76339 6.20107 3.5 6.83696 3.5 7.5V20C3.50045 20.4384 3.61618 20.869 3.83558 21.2485C4.05498 21.6281 4.37033 21.9433 4.75 22.1625C4.70524 23.3228 5.12326 24.4534 5.91208 25.3055C6.70091 26.1576 7.79593 26.6615 8.95625 26.7062C10.1166 26.751 11.2471 26.333 12.0993 25.5442C12.9514 24.7553 13.4552 23.6603 13.5 22.5H17.375C17.5132 23.5459 18.0268 24.5059 18.8202 25.2013C19.6135 25.8967 20.6325 26.28 21.6875 26.28C22.7425 26.28 23.7615 25.8967 24.5548 25.2013C25.3482 24.5059 25.8618 23.5459 26 22.5C26.663 22.5 27.2989 22.2366 27.7678 21.7678C28.2366 21.2989 28.5 20.663 28.5 20V16.25C28.498 16.022 28.4378 15.7982 28.325 15.6L24.9375 10ZM19.75 11.25H22.7875L25.0375 15H19.75V11.25ZM9.125 23.75C8.75416 23.75 8.39165 23.64 8.08331 23.434C7.77496 23.228 7.53464 22.9351 7.39273 22.5925C7.25081 22.2499 7.21368 21.8729 7.28603 21.5092C7.35837 21.1455 7.53695 20.8114 7.79917 20.5492C8.0614 20.287 8.39549 20.1084 8.75921 20.036C9.12292 19.9637 9.49992 20.0008 9.84253 20.1427C10.1851 20.2846 10.478 20.525 10.684 20.8333C10.89 21.1416 11 21.5042 11 21.875C11 22.3723 10.8025 22.8492 10.4508 23.2008C10.0992 23.5525 9.62228 23.75 9.125 23.75ZM21.625 23.75C21.2542 23.75 20.8916 23.64 20.5833 23.434C20.275 23.228 20.0346 22.9351 19.8927 22.5925C19.7508 22.2499 19.7137 21.8729 19.786 21.5092C19.8584 21.1455 20.037 20.8114 20.2992 20.5492C20.5614 20.287 20.8955 20.1084 21.2592 20.036C21.6229 19.9637 21.9999 20.0008 22.3425 20.1427C22.6851 20.2846 22.978 20.525 23.184 20.8333C23.39 21.1416 23.5 21.5042 23.5 21.875C23.5 22.3723 23.3025 22.8492 22.9508 23.2008C22.5992 23.5525 22.1223 23.75 21.625 23.75Z" fill="#9B622F"/>
</svg>
