<svg width="19" height="19" viewBox="0 0 19 19" fill="none" xmlns="http://www.w3.org/2000/svg">
<path d="M3.41352 0C1.52258 0 0 1.52258 0 3.41352V15.2811C0 17.172 1.52258 18.6946 3.41352 18.6946H9.84562V11.3862H7.91307V8.75491H9.84562V6.50689C9.84562 4.74072 10.9875 3.11908 13.6178 3.11908C14.6828 3.11908 15.4704 3.22132 15.4704 3.22132L15.4084 5.67849C15.4084 5.67849 14.6052 5.6709 13.7288 5.6709C12.7803 5.6709 12.6282 6.10794 12.6282 6.83348V8.75493H15.4838L15.3593 11.3862H12.6282V18.6946H15.281C17.172 18.6946 18.6946 17.172 18.6946 15.2811V3.41353C18.6946 1.5226 17.172 1.86946e-05 15.281 1.86946e-05H3.4135L3.41352 0Z" fill="white"/>
</svg>
