<svg width="32" height="28" viewBox="0 0 32 28" fill="none" xmlns="http://www.w3.org/2000/svg">
<path d="M16.73 10.4129L15.23 11.7874C13.2 13.6479 10.89 12.3829 10.145 11.5729C8.8 10.1029 8.905 7.82792 10.365 6.48792L14.455 2.74292H14.125C11.235 2.74292 8.455 3.89042 6.41 5.93292L1.6 5.94792C0.72 5.94792 0 6.66742 0 7.54692V15.5369C0 16.4164 0.72 17.1389 1.555 17.1389L7.27 17.1359L11.795 21.2269C13.17 22.3454 15.1825 22.1324 16.295 20.7642L17.201 21.5267C17.995 22.1317 19.17 22.0517 19.82 21.2582L21.389 19.3282L21.6577 19.5531C22.3452 20.1031 23.3517 20.0032 23.9077 19.3157L24.3865 18.7242C24.9405 18.0392 24.8354 17.0367 24.1514 16.4812L16.73 10.4129ZM30.4 5.94792L25.6 5.94162C23.551 3.89362 20.772 2.74762 17.875 2.74762L17.445 2.74292C17.045 2.74292 16.664 2.90277 16.364 3.17132L11.45 7.65792L11.44 7.67792C10.6 8.46792 10.62 9.70792 11.33 10.4779C11.8113 11.0029 13.08 11.5589 14.1365 10.6154C14.1365 10.6092 14.149 10.6092 14.1553 10.6029L18.1553 6.94792C18.4803 6.65437 18.9862 6.67312 19.2863 6.99792C19.5863 7.32272 19.5613 7.82892 19.2362 8.12892L17.9303 9.32242L25.2102 15.2274C25.8162 15.727 26.1853 16.4019 26.3163 17.1264L30.4 17.1279C31.28 17.1279 32 16.4089 32 15.5289V7.54792C32 6.66292 31.285 5.94792 30.4 5.94792Z" fill="#9B622F"/>
</svg>
