<svg width="26" height="26" viewBox="0 0 26 26" fill="none" xmlns="http://www.w3.org/2000/svg">
<g clip-path="url(#clip0_1_28)">
<path d="M17.3333 2.97917C17.3333 5.32242 14.2783 8.23442 12.7563 9.45533C12.5181 9.64628 12.2219 9.75033 11.9167 9.75033C11.6114 9.75033 11.3153 9.64628 11.0771 9.45533C9.555 8.23333 6.5 5.32242 6.5 2.97917C6.46583 2.2254 6.7316 1.48879 7.23915 0.930481C7.74671 0.372169 8.45473 0.0376117 9.20833 0C9.96193 0.0376117 10.67 0.372169 11.1775 0.930481C11.6851 1.48879 11.9508 2.2254 11.9167 2.97917C11.8825 2.2254 12.1483 1.48879 12.6558 0.930481C13.1634 0.372169 13.8714 0.0376117 14.625 0C15.3786 0.0376117 16.0866 0.372169 16.5942 0.930481C17.1017 1.48879 17.3675 2.2254 17.3333 2.97917ZM25.2828 13.3792L16.9412 22.4889C15.9256 23.5963 14.6907 24.4803 13.3151 25.0848C11.9394 25.6892 10.4531 26.0009 8.9505 26H4.33333C3.18406 26 2.08186 25.5435 1.2692 24.7308C0.456546 23.9181 0 22.8159 0 21.6667V16.25C0 15.1007 0.456546 13.9985 1.2692 13.1859C2.08186 12.3732 3.18406 11.9167 4.33333 11.9167H12.7692C13.1274 11.9174 13.4808 11.9981 13.8037 12.1529C14.1266 12.3078 14.4107 12.5329 14.6355 12.8117C14.8602 13.0905 15.0197 13.416 15.1025 13.7644C15.1852 14.1128 15.189 14.4753 15.1136 14.8254C14.9963 15.3151 14.7321 15.7573 14.3565 16.0926C13.9809 16.428 13.5117 16.6405 13.0119 16.7017L8.502 17.3333C8.21775 17.3741 7.96133 17.5261 7.78907 17.7558C7.6168 17.9856 7.54281 18.2743 7.58333 18.5586C7.62385 18.843 7.7757 19.0997 8.00548 19.2722C8.23525 19.4447 8.52414 19.5188 8.80858 19.4783L13.4149 18.8283C14.4998 18.6685 15.4916 18.1253 16.2105 17.2972C16.9293 16.469 17.3277 15.4107 17.3333 14.3141C17.328 14.0822 17.3045 13.8511 17.2629 13.6229L21.1001 9.5745C21.6061 9.0266 22.3083 8.70118 23.0535 8.66931C23.7986 8.63744 24.5261 8.90172 25.077 9.40442C25.6251 9.90677 25.9539 10.6044 25.9924 11.347C26.0309 12.0895 25.7761 12.8174 25.2828 13.3738V13.3792Z" fill="#9B622F"/>
</g>
<defs>
<clipPath id="clip0_1_28">
<rect width="26" height="26" fill="white"/>
</clipPath>
</defs>
</svg>
