<svg width="15" height="15" viewBox="0 0 15 15" fill="none" xmlns="http://www.w3.org/2000/svg">
<path d="M7.5 1.35125C9.5025 1.35125 9.74 1.35875 10.5306 1.395C11.3481 1.4325 12.19 1.61875 12.7856 2.21438C13.3869 2.81562 13.5675 3.64937 13.605 4.46938C13.6412 5.26 13.6487 5.4975 13.6487 7.5C13.6487 9.5025 13.6412 9.74 13.605 10.5306C13.5681 11.3438 13.3775 12.1938 12.7856 12.7856C12.1844 13.3869 11.3513 13.5675 10.5306 13.605C9.74 13.6412 9.5025 13.6487 7.5 13.6487C5.4975 13.6487 5.26 13.6412 4.46938 13.605C3.6625 13.5681 2.80125 13.3731 2.21438 12.7856C1.61625 12.1875 1.4325 11.3456 1.395 10.5306C1.35875 9.74 1.35125 9.5025 1.35125 7.5C1.35125 5.4975 1.35875 5.26 1.395 4.46938C1.43188 3.65937 1.62437 2.80437 2.21438 2.21438C2.81437 1.61437 3.65125 1.4325 4.46938 1.395C5.26 1.35875 5.4975 1.35125 7.5 1.35125ZM7.5 0C5.46312 0 5.2075 0.00875 4.4075 0.045C3.24813 0.098125 2.09687 0.420625 1.25875 1.25875C0.4175 2.1 0.098125 3.24875 0.045 4.4075C0.00875 5.2075 0 5.46312 0 7.5C0 9.53687 0.00875 9.7925 0.045 10.5925C0.098125 11.7506 0.421875 12.905 1.25875 13.7413C2.09938 14.5819 3.25 14.9019 4.4075 14.955C5.2075 14.9913 5.46312 15 7.5 15C9.53687 15 9.7925 14.9913 10.5925 14.955C11.7513 14.9019 12.9038 14.5787 13.7413 13.7413C14.5831 12.8994 14.9019 11.7513 14.955 10.5925C14.9913 9.7925 15 9.53687 15 7.5C15 5.46312 14.9913 5.2075 14.955 4.4075C14.9019 3.24813 14.5787 2.09625 13.7413 1.25875C12.9019 0.419375 11.7481 0.0975 10.5925 0.045C9.7925 0.00875 9.53687 0 7.5 0Z" fill="#9B622F"/>
<path d="M7.49999 3.64874C5.37312 3.64874 3.64874 5.37312 3.64874 7.49999C3.64874 9.62687 5.37312 11.3512 7.49999 11.3512C9.62687 11.3512 11.3512 9.62687 11.3512 7.49999C11.3512 5.37312 9.62687 3.64874 7.49999 3.64874ZM7.49999 9.99999C6.11937 9.99999 4.99999 8.88062 4.99999 7.49999C4.99999 6.11937 6.11937 4.99999 7.49999 4.99999C8.88062 4.99999 9.99999 6.11937 9.99999 7.49999C9.99999 8.88062 8.88062 9.99999 7.49999 9.99999Z" fill="#9B622F"/>
<path d="M11.5037 4.39625C12.0008 4.39625 12.4037 3.99331 12.4037 3.49625C12.4037 2.9992 12.0008 2.59625 11.5037 2.59625C11.0067 2.59625 10.6037 2.9992 10.6037 3.49625C10.6037 3.99331 11.0067 4.39625 11.5037 4.39625Z" fill="#9B622F"/>
</svg>
