<svg width="20" height="20" viewBox="0 0 20 20" fill="none" xmlns="http://www.w3.org/2000/svg">
<path d="M18.75 8.75H1.25C0.559648 8.75 0 9.30965 0 10C0 10.6904 0.559648 11.25 1.25 11.25H18.75C19.4404 11.25 20 10.6904 20 10C20 9.30965 19.4404 8.75 18.75 8.75Z" fill="black"/>
<path d="M1.25 5.41675H18.75C19.4404 5.41675 20 4.8571 20 4.16675C20 3.4764 19.4404 2.91675 18.75 2.91675H1.25C0.559648 2.91675 0 3.4764 0 4.16675C0 4.8571 0.559648 5.41675 1.25 5.41675Z" fill="black"/>
<path d="M18.75 14.5835H1.25C0.559648 14.5835 0 15.1431 0 15.8335C0 16.5238 0.559648 17.0835 1.25 17.0835H18.75C19.4404 17.0835 20 16.5238 20 15.8335C20 15.1431 19.4404 14.5835 18.75 14.5835Z" fill="black"/>
</svg>
