<svg width="25" height="25" viewBox="0 0 25 25" fill="none" xmlns="http://www.w3.org/2000/svg">
<g clip-path="url(#clip0_1_46)">
<path d="M23.6594 4.24688C23.3664 3.89525 22.9995 3.61245 22.5849 3.41856C22.1703 3.22467 21.7181 3.12444 21.2604 3.125H4.41875L4.375 2.75938C4.28547 1.99939 3.92019 1.29868 3.34843 0.790081C2.77666 0.281483 2.03815 0.000356035 1.27292 0L1.04167 0C0.7654 0 0.500448 0.109747 0.305097 0.305097C0.109747 0.500448 0 0.7654 0 1.04167C0 1.31793 0.109747 1.58289 0.305097 1.77824C0.500448 1.97359 0.7654 2.08333 1.04167 2.08333H1.27292C1.52806 2.08337 1.77431 2.17704 1.96497 2.34658C2.15563 2.51612 2.27744 2.74974 2.30729 3.00313L3.74063 15.1906C3.88943 16.4581 4.49841 17.6269 5.45199 18.475C6.40556 19.3232 7.63735 19.7917 8.91354 19.7917H19.7917C20.0679 19.7917 20.3329 19.6819 20.5282 19.4866C20.7236 19.2912 20.8333 19.0263 20.8333 18.75C20.8333 18.4737 20.7236 18.2088 20.5282 18.0134C20.3329 17.8181 20.0679 17.7083 19.7917 17.7083H8.91354C8.26881 17.7065 7.64042 17.5053 7.11452 17.1324C6.58862 16.7594 6.19095 16.2329 5.97604 15.625H18.3927C19.6138 15.6251 20.7962 15.1961 21.7332 14.413C22.6701 13.6298 23.3021 12.5424 23.5188 11.3406L24.3365 6.80521C24.4181 6.35522 24.3997 5.89278 24.2827 5.45066C24.1657 5.00855 23.9529 4.59758 23.6594 4.24688Z" fill="#9B622F"/>
<path d="M7.29168 24.9999C8.44227 24.9999 9.37501 24.0672 9.37501 22.9166C9.37501 21.766 8.44227 20.8333 7.29168 20.8333C6.14108 20.8333 5.20834 21.766 5.20834 22.9166C5.20834 24.0672 6.14108 24.9999 7.29168 24.9999Z" fill="#9B622F"/>
<path d="M17.7083 24.9999C18.8589 24.9999 19.7917 24.0672 19.7917 22.9166C19.7917 21.766 18.8589 20.8333 17.7083 20.8333C16.5577 20.8333 15.625 21.766 15.625 22.9166C15.625 24.0672 16.5577 24.9999 17.7083 24.9999Z" fill="#9B622F"/>
</g>
<defs>
<clipPath id="clip0_1_46">
<rect width="25" height="25" fill="white"/>
</clipPath>
</defs>
</svg>
