<svg width="30" height="30" viewBox="0 0 30 30" fill="none" xmlns="http://www.w3.org/2000/svg">
<path d="M0 21.7222V14.3333H28V21.7222C28 22.2569 27.8096 22.7147 27.4288 23.0955C27.048 23.4763 26.5903 23.6667 26.0556 23.6667H1.94444C1.40972 23.6667 0.951968 23.4763 0.571181 23.0955C0.190394 22.7147 0 22.2569 0 21.7222ZM7.77778 19V20.5556H12.4444V19H7.77778ZM3.11111 19V20.5556H6.22222V19H3.11111ZM26.0556 5C26.5903 5 27.048 5.19039 27.4288 5.57118C27.8096 5.95197 28 6.40972 28 6.94444V9.66667H0V6.94444C0 6.40972 0.190394 5.95197 0.571181 5.57118C0.951968 5.19039 1.40972 5 1.94444 5H26.0556Z" fill="#9B622F"/>
</svg>
